<svg width="20" height="20" viewBox="0 0 20 20" fill="none" xmlns="http://www.w3.org/2000/svg">
    <path d="M18.3333 20L13.9583 15.8333L14.4833 17.5H3.74999C3.19746 17.5 2.66755 17.2805 2.27685 16.8898C1.88615 16.4991 1.66666 15.9692 1.66666 15.4166V2.91665C1.66666 2.36411 1.88615 1.83421 2.27685 1.44351C2.66755 1.05281 3.19746 0.833313 3.74999 0.833313H16.25C16.8025 0.833313 17.3324 1.05281 17.7231 1.44351C18.1138 1.83421 18.3333 2.36411 18.3333 2.91665V20ZM9.99999 5.66665C7.76666 5.66665 6.19999 6.62498 6.19999 6.62498C7.05832 5.85831 8.55832 5.41665 8.55832 5.41665L8.41666 5.27498C7.00832 5.29998 5.73332 6.27498 5.73332 6.27498C4.29999 9.26665 4.39166 11.85 4.39166 11.85C5.55832 13.3583 7.29166 13.25 7.29166 13.25L7.88332 12.5C6.84166 12.275 6.18332 11.35 6.18332 11.35C6.18332 11.35 7.74999 12.4166 9.99999 12.4166C12.25 12.4166 13.8167 11.35 13.8167 11.35C13.8167 11.35 13.1583 12.275 12.1167 12.5L12.7083 13.25C12.7083 13.25 14.4417 13.3583 15.6083 11.85C15.6083 11.85 15.7 9.26665 14.2667 6.27498C14.2667 6.27498 12.9917 5.29998 11.5833 5.27498L11.4417 5.41665C11.4417 5.41665 12.9417 5.85831 13.8 6.62498C13.8 6.62498 12.2333 5.66665 9.99999 5.66665M8.27499 8.82498C8.81666 8.82498 9.25832 9.29998 9.24999 9.88331C9.24999 10.4583 8.81666 10.9416 8.27499 10.9416C7.74166 10.9416 7.30832 10.4583 7.30832 9.88331C7.30832 9.29998 7.73332 8.82498 8.27499 8.82498ZM11.75 8.82498C12.2917 8.82498 12.725 9.29998 12.725 9.88331C12.725 10.4583 12.2917 10.9416 11.75 10.9416C11.2167 10.9416 10.7833 10.4583 10.7833 9.88331C10.7833 9.29998 11.2083 8.82498 11.75 8.82498Z" fill="white"/>
</svg>
