<svg width="20" height="20" viewBox="0 0 20 20" fill="none" xmlns="http://www.w3.org/2000/svg">
    <path d="M12.0833 12.8417C12.15 12.9167 12.15 13.075 12.0833 13.1667C11.475 13.75 10.3417 13.8 9.99999 13.8C9.67499 13.8 8.54166 13.75 7.94999 13.1667C7.86666 13.075 7.86666 12.9167 7.94999 12.8417C8.04166 12.7584 8.18332 12.7584 8.26666 12.8417C8.64999 13.225 9.44166 13.3334 9.99999 13.3334C10.575 13.3334 11.3833 13.225 11.75 12.8417C11.8417 12.7584 11.9833 12.7584 12.0833 12.8417M8.95832 10.8667C8.95832 10.3917 8.56666 10 8.09166 10C7.61666 10 7.22499 10.3917 7.22499 10.8667C7.22499 11.3417 7.61666 11.7417 8.09166 11.7334C8.56666 11.7334 8.95832 11.3417 8.95832 10.8667ZM11.9083 10C11.4333 10 11.0417 10.4167 11.0417 10.875C11.0417 11.3334 11.4333 11.7417 11.9083 11.7417C12.3833 11.7417 12.775 11.3417 12.775 10.875C12.775 10.4167 12.3833 10 11.9083 10ZM18.3333 10C18.3333 14.5834 14.5833 18.3334 9.99999 18.3334C5.41666 18.3334 1.66666 14.5834 1.66666 10C1.66666 5.41669 5.41666 1.66669 9.99999 1.66669C14.5833 1.66669 18.3333 5.41669 18.3333 10ZM15.5583 10C15.5583 9.32502 15 8.78335 14.35 8.78335C14.0167 8.78335 13.7167 8.91669 13.5 9.12502C12.6667 8.52502 11.525 8.14169 10.25 8.09169L10.8083 5.48335L12.6167 5.87502C12.6333 6.33335 13.0167 6.70002 13.4833 6.70002C13.9583 6.70002 14.35 6.30835 14.35 5.83335C14.35 5.35835 13.9583 4.96669 13.4833 4.96669C13.1417 4.96669 12.8417 5.16669 12.7083 5.45835L10.6833 5.02502C10.625 5.00002 10.5667 5.02502 10.525 5.05835C10.475 5.09169 10.45 5.14169 10.4417 5.20002L9.82499 8.10002C8.53332 8.14169 7.36666 8.52502 6.51666 9.13335C6.29999 8.92502 5.99999 8.80002 5.67499 8.80002C4.99999 8.80002 4.45832 9.34169 4.45832 10C4.45832 10.5084 4.75832 10.925 5.17499 11.1167C5.15832 11.25 5.14999 11.35 5.14999 11.4834C5.14999 13.3334 7.32499 14.875 9.99999 14.875C12.6917 14.875 14.875 13.3584 14.875 11.4834C14.875 11.3667 14.8667 11.25 14.8417 11.1167C15.2583 10.925 15.5583 10.5 15.5583 10V10Z" fill="white"/>
</svg>
